<svg width="13" height="11" viewBox="0 0 13 11" fill="none" xmlns="http://www.w3.org/2000/svg">
<path d="M1.74378 5.37157C1.37462 4.9608 0.74235 4.92706 0.331573 5.29622C-0.0792043 5.66539 -0.11294 6.29765 0.256223 6.70843L1.74378 5.37157ZM4.55882 10L3.81505 10.6684C4.00951 10.8848 4.28857 11.0058 4.57943 10.9998C4.8703 10.9938 5.14413 10.8614 5.32952 10.6372L4.55882 10ZM12.7707 1.63721C13.1226 1.21156 13.0628 0.581227 12.6372 0.229307C12.2116 -0.122612 11.5812 -0.0628487 11.2293 0.362793L12.7707 1.63721ZM0.256223 6.70843L3.81505 10.6684L5.3026 9.33157L1.74378 5.37157L0.256223 6.70843ZM5.32952 10.6372L12.7707 1.63721L11.2293 0.362793L3.78813 9.36279L5.32952 10.6372Z" fill="#9DA5B4"/>
</svg>
