<svg width="19" height="23" viewBox="0 0 19 23" fill="none" xmlns="http://www.w3.org/2000/svg">
<path d="M12.6667 14.5256L13.0286 14.8706L12.6667 14.5256ZM6.33338 14.5256L5.97147 14.8706L6.33338 14.5256ZM12.8588 7.68018L13.2207 7.33519L12.8588 7.68018ZM7.91671 21.5001C7.64057 21.5001 7.41671 21.7239 7.41671 22.0001C7.41671 22.2762 7.64057 22.5001 7.91671 22.5001V21.5001ZM11.0834 22.5001C11.3595 22.5001 11.5834 22.2762 11.5834 22.0001C11.5834 21.7239 11.3595 21.5001 11.0834 21.5001V22.5001ZM12.3048 14.1806C11.9572 14.5453 11.7297 15.0548 11.5866 15.6555C11.4425 16.2601 11.375 16.9942 11.375 17.8476H12.375C12.375 17.0401 12.4395 16.39 12.5593 15.8873C12.6801 15.3806 12.8485 15.0596 13.0286 14.8706L12.3048 14.1806ZM11.0446 18.1781H7.95554V19.1781H11.0446V18.1781ZM7.62505 17.8476C7.62505 16.9942 7.5576 16.2601 7.41351 15.6555C7.27037 15.0548 7.04294 14.5453 6.69529 14.1806L5.97147 14.8706C6.1516 15.0596 6.32001 15.3806 6.44075 15.8873C6.56055 16.39 6.62505 17.0401 6.62505 17.8476H7.62505ZM6.69529 14.1806C5.01168 12.4145 4.85752 9.75157 6.5032 8.02517L5.77938 7.33519C3.71508 9.50072 3.97219 12.7733 5.97147 14.8706L6.69529 14.1806ZM6.5032 8.02517C8.16118 6.28588 10.8389 6.28588 12.4969 8.02517L13.2207 7.33519C11.1687 5.18254 7.83138 5.18254 5.77938 7.33519L6.5032 8.02517ZM12.4969 8.02517C14.1464 9.75558 14.0482 12.3517 12.3048 14.1806L13.0286 14.8706C15.096 12.7018 15.2812 9.49671 13.2207 7.33519L12.4969 8.02517ZM7.91671 22.5001H11.0834V21.5001H7.91671V22.5001ZM7.95554 18.1781C7.77301 18.1781 7.62505 18.0301 7.62505 17.8476H6.62505C6.62505 18.5824 7.22073 19.1781 7.95554 19.1781V18.1781ZM11.375 17.8476C11.375 18.0301 11.2271 18.1781 11.0446 18.1781V19.1781C11.7794 19.1781 12.375 18.5824 12.375 17.8476H11.375Z" fill="#9DA5B4"/>
<line x1="0.5" y1="-0.5" x2="1.98416" y2="-0.5" transform="matrix(0.819477 -0.573112 0.536356 0.843992 2.71436 18.0845)" stroke="#9DA5B4" stroke-linecap="round"/>
<line x1="0.5" y1="-0.5" x2="1.94664" y2="-0.5" transform="matrix(0.999941 0.0108689 -0.0098763 0.999951 0 11.6777)" stroke="#9DA5B4" stroke-linecap="round"/>
<line x1="0.5" y1="-0.5" x2="1.99867" y2="-0.5" transform="matrix(0.740642 0.671899 -0.636082 0.771621 2.03564 4.55957)" stroke="#9DA5B4" stroke-linecap="round"/>
<line x1="0.5" y1="-0.5" x2="1.98416" y2="-0.5" transform="matrix(-0.819478 -0.573111 -0.536357 0.843991 16.2856 18.084)" stroke="#9DA5B4" stroke-linecap="round"/>
<line x1="0.5" y1="-0.5" x2="1.94664" y2="-0.5" transform="matrix(-0.999941 0.0108689 0.00987631 0.999951 19 11.6775)" stroke="#9DA5B4" stroke-linecap="round"/>
<line x1="0.5" y1="-0.5" x2="1.99867" y2="-0.5" transform="matrix(-0.740642 0.671899 0.636082 0.771622 16.9644 4.55933)" stroke="#9DA5B4" stroke-linecap="round"/>
<line x1="0.5" y1="-0.5" x2="2.06661" y2="-0.5" transform="matrix(0.00780408 -0.99997 0.999963 0.00858858 10 3.56641)" stroke="#9DA5B4" stroke-linecap="round"/>
</svg>
