<svg width="1440" height="442" viewBox="0 0 1440 442" fill="none" xmlns="http://www.w3.org/2000/svg">
<path d="M241.5 219C142.486 204.138 10 117.5 10 117.5V-91.9999H1450V350.136C1450 350.136 1405.44 403.056 1368.5 426C1239.89 505.889 1195.66 258.558 1064 183.136C1003.83 148.667 948.101 268.025 883 244.136C818.98 220.644 752.462 321.444 672 266.136C591.538 210.828 596.337 186.142 539.5 170.5C425.819 139.215 358.101 236.502 241.5 219Z" fill="url(#paint0_linear)" fill-opacity="0.04"/>
<path d="M143 366C42.829 366 0 240 0 240V-91.9999H1440V219C1440 219 1337.89 164 1261.5 164C1166.5 164 1143.57 224.5 1050.5 224.5C924 224.5 931.313 135.686 799.5 133.5C661.845 131.218 679.5 287 549 287C504.165 287 379 213.5 340 213.5C257.204 213.5 218 366 143 366Z" fill="url(#paint1_linear)" fill-opacity="0.03"/>
<defs>
<linearGradient id="paint0_linear" x1="730" y1="441.694" x2="730" y2="-91.9999" gradientUnits="userSpaceOnUse">
<stop stop-color="white"/>
<stop offset="1" stop-color="white" stop-opacity="0"/>
</linearGradient>
<linearGradient id="paint1_linear" x1="720" y1="366" x2="720" y2="-91.9999" gradientUnits="userSpaceOnUse">
<stop stop-color="white"/>
<stop offset="1" stop-color="white" stop-opacity="0"/>
</linearGradient>
</defs>
</svg>
