<svg width="1440" height="289" viewBox="0 0 1440 289" fill="none" xmlns="http://www.w3.org/2000/svg">
<path d="M150.5 289C50.329 289 0 242 0 242V0H1440V242C1440 242 1380.5 194 1333 194C1259.94 194 1219.07 232.5 1126 232.5C999.5 232.5 976.313 165.186 844.5 163C706.845 160.718 679.5 289 549 289C504.165 289 380 220.5 341 220.5C258.204 220.5 219 289 150.5 289Z" fill="url(#paint0_linear)" fill-opacity="0.05"/>
<path d="M1209.5 230C1307.63 249.885 1440 194 1440 194V0H0V194C0 194 77.281 166.069 149.5 183C197 194.136 270.5 228.364 403.5 241C472.535 247.559 609.303 187.451 671.5 203C729.5 217.5 769 269.44 819 257.5C869 245.56 923.5 168 984 161C1041.94 154.296 1096 207 1209.5 230Z" fill="url(#paint1_linear)" fill-opacity="0.04"/>
<defs>
<linearGradient id="paint0_linear" x1="720" y1="368" x2="720" y2="-90" gradientUnits="userSpaceOnUse">
<stop stop-color="white"/>
<stop offset="1" stop-color="white" stop-opacity="0"/>
</linearGradient>
<linearGradient id="paint1_linear" x1="721" y1="452.693" x2="721" y2="-80.9997" gradientUnits="userSpaceOnUse">
<stop stop-color="white"/>
<stop offset="1" stop-color="white" stop-opacity="0"/>
</linearGradient>
</defs>
</svg>
