<svg width="20" height="23" viewBox="0 0 20 23" fill="none" xmlns="http://www.w3.org/2000/svg">
<path d="M1 11.2561C0.723858 11.2561 0.5 11.48 0.5 11.7561C0.5 12.0322 0.723858 12.2561 1 12.2561L1 11.2561ZM11.125 12.1097C11.3202 11.9144 11.3202 11.5978 11.125 11.4026L7.943 8.22057C7.74774 8.02531 7.43116 8.02531 7.2359 8.22057C7.04063 8.41583 7.04063 8.73241 7.2359 8.92768L10.0643 11.7561L7.2359 14.5845C7.04063 14.7798 7.04063 15.0964 7.2359 15.2916C7.43116 15.4869 7.74774 15.4869 7.943 15.2916L11.125 12.1097ZM1 12.2561L10.7714 12.2561V11.2561L1 11.2561L1 12.2561Z" fill="white"/>
<path d="M4.6001 8.5V3C4.6001 1.89543 5.49553 1 6.6001 1H17.0001C18.1047 1 19.0001 1.89543 19.0001 3V20C19.0001 21.1046 18.1047 22 17.0001 22H6.6001C5.49553 22 4.6001 21.1046 4.6001 20V15" stroke="white" stroke-linecap="round"/>
</svg>
