<svg width="20" height="20" viewBox="0 0 20 20" fill="none" xmlns="http://www.w3.org/2000/svg">
<path d="M6.97391 2.69158C6.76199 2.22229 6.20687 2.00976 5.7606 2.26663C4.16668 3.18412 2.86702 4.5486 2.02863 6.20049C1.04904 8.1306 0.757916 10.3373 1.20344 12.4555C1.64897 14.5736 2.80444 16.476 4.47858 17.848C6.15273 19.2199 8.24516 19.979 10.4095 19.9996C12.5739 20.0202 14.6804 19.3011 16.3804 17.9613C18.0803 16.6215 19.2718 14.7414 19.7576 12.6322C20.2434 10.5229 19.9944 8.31104 19.0517 6.36263C18.245 4.69507 16.9715 3.30608 15.3954 2.3584C14.9541 2.09307 14.395 2.29499 14.1742 2.76016C13.9534 3.22532 14.1554 3.77678 14.5902 4.05262C15.7852 4.8107 16.7515 5.88982 17.3732 7.17472C18.1308 8.74069 18.331 10.5184 17.9405 12.2137C17.5501 13.9089 16.5925 15.42 15.2262 16.4968C13.8599 17.5736 12.1668 18.1515 10.4273 18.135C8.68775 18.1184 7.00602 17.5083 5.66048 16.4057C4.31494 15.3031 3.38627 13.774 3.02819 12.0716C2.67011 10.3693 2.9041 8.59567 3.69141 7.04441C4.33741 5.77158 5.32416 4.71107 6.53337 3.97588C6.97335 3.70838 7.18582 3.16087 6.97391 2.69158Z" fill="#DFDFDF"/>
<path d="M9.63637 1.86364C9.63637 1.38666 10.023 1 10.5 1C10.977 1 11.3636 1.38666 11.3636 1.86364V9.63636C11.3636 10.1133 10.977 10.5 10.5 10.5C10.023 10.5 9.63637 10.1133 9.63637 9.63636V1.86364Z" fill="#DFDFDF"/>
</svg>
