<svg width="16" height="16" viewBox="0 0 16 16" fill="none" xmlns="http://www.w3.org/2000/svg">
<path d="M6.86906 2.15355e-07C6.78847 4.29021e-05 6.71052 0.0287085 6.6491 0.0808856C6.58767 0.133063 6.54678 0.205359 6.53371 0.284883L6.20301 2.30961C5.80535 2.42529 5.42616 2.58137 5.06879 2.77578L3.39801 1.58246C3.33259 1.53575 3.25275 1.51372 3.17264 1.52029C3.09252 1.52685 3.01733 1.56158 2.96039 1.61832L1.63758 2.93981C1.58105 2.99637 1.54627 3.07106 1.53935 3.15073C1.53242 3.2304 1.5538 3.30996 1.59973 3.37543L2.77512 5.05684C2.57771 5.41629 2.41817 5.79762 2.29965 6.19902L0.283555 6.53438C0.204274 6.54773 0.13229 6.58874 0.0803793 6.65014C0.0284688 6.71153 -9.11089e-06 6.78933 5.60293e-07 6.86973V8.73973C-0.000144453 8.81964 0.0278638 8.89706 0.0791094 8.95838C0.130355 9.01971 0.201563 9.06102 0.280235 9.07508L2.29766 9.43234C2.41553 9.83305 2.57406 10.2146 2.7718 10.5745L1.5818 12.2393C1.53509 12.3048 1.51306 12.3846 1.51962 12.4647C1.52619 12.5448 1.56092 12.62 1.61766 12.677L2.93981 13.9998C2.99625 14.0562 3.07076 14.091 3.15029 14.0981C3.22981 14.1051 3.30928 14.0839 3.37477 14.0383L5.05949 12.8589C5.41792 13.0545 5.79803 13.2117 6.19703 13.3284L6.53371 15.3558C6.54692 15.4352 6.58788 15.5073 6.64928 15.5594C6.71069 15.6114 6.78857 15.64 6.86906 15.64H8.73906C8.81908 15.6401 8.89657 15.612 8.95791 15.5606C9.01924 15.5093 9.0605 15.4379 9.07442 15.3591L9.435 13.3238C9.83235 13.2053 10.2107 13.0457 10.5672 12.8489L12.2632 14.0389C12.3287 14.0849 12.4083 14.1063 12.4879 14.0993C12.5676 14.0924 12.6423 14.0576 12.6989 14.0011L14.021 12.6776C14.078 12.6205 14.1128 12.545 14.1193 12.4646C14.1257 12.3842 14.1034 12.3041 14.0562 12.2387L12.847 10.5599C13.0403 10.2051 13.1961 9.82902 13.3118 9.43434L15.3578 9.07574C15.4366 9.06183 15.5079 9.02057 15.5593 8.95923C15.6107 8.8979 15.6388 8.82041 15.6387 8.74039V6.87039C15.6386 6.7898 15.61 6.71184 15.5578 6.65042C15.5056 6.589 15.4333 6.54811 15.3538 6.53504L13.3111 6.20102C13.1946 5.8068 13.0384 5.43141 12.845 5.07676L14.0376 3.37742C14.0835 3.31195 14.1049 3.23239 14.098 3.15272C14.0911 3.07305 14.0563 2.99837 13.9998 2.9418L12.677 1.61965C12.6199 1.56267 12.5444 1.52785 12.4639 1.5214C12.3835 1.51495 12.3035 1.5373 12.238 1.58445L10.5639 2.7884C10.2072 2.59244 9.82864 2.43372 9.43035 2.31625L9.07442 0.281563C9.06064 0.202647 9.01944 0.131129 8.95809 0.0796175C8.89674 0.0281063 8.81917 -8.99033e-05 8.73906 2.15355e-07H6.86906ZM7.15859 0.68H8.45352L8.79219 2.61309C8.80346 2.67792 8.8333 2.73809 8.87809 2.7863C8.92288 2.83451 8.9807 2.86869 9.04453 2.88469C9.54179 3.0086 10.0088 3.20503 10.4351 3.46309C10.4921 3.49762 10.558 3.51464 10.6245 3.51205C10.6911 3.50945 10.7555 3.48734 10.8096 3.44848L12.4007 2.30496L13.3164 3.2207L12.1836 4.83504C12.1457 4.88889 12.1243 4.95257 12.122 5.01834C12.1196 5.08412 12.1364 5.14916 12.1703 5.20559C12.4258 5.6309 12.6196 6.09497 12.7434 6.58949C12.7595 6.6539 12.7941 6.71218 12.843 6.75714C12.8918 6.8021 12.9528 6.83177 13.0183 6.8425L14.9587 7.15992V8.45484L13.0143 8.79617C12.9494 8.80766 12.8893 8.83775 12.8412 8.88278C12.7931 8.92782 12.7591 8.98586 12.7434 9.04984C12.621 9.54374 12.4271 10.0078 12.1716 10.4331C12.1373 10.4901 12.1205 10.5559 12.1232 10.6223C12.1259 10.6888 12.148 10.753 12.1869 10.807L13.3357 12.4014L12.42 13.3178L10.8083 12.1869C10.7542 12.149 10.6902 12.1276 10.6241 12.1255C10.5581 12.1234 10.4929 12.1406 10.4364 12.1749C10.0123 12.433 9.54475 12.6303 9.04918 12.756C8.98565 12.772 8.9281 12.806 8.88345 12.854C8.8388 12.9019 8.80895 12.9617 8.7975 13.0263L8.45418 14.96H7.15727L6.83719 13.0349C6.82629 12.9694 6.79647 12.9085 6.75139 12.8598C6.70631 12.8111 6.64796 12.7766 6.58352 12.7606C6.08597 12.638 5.61685 12.4419 5.18766 12.1842C5.13131 12.1505 5.06639 12.1338 5.00075 12.1361C4.93511 12.1385 4.87156 12.1598 4.81777 12.1975L3.21871 13.3178L2.30231 12.4L3.43254 10.8202C3.47117 10.7661 3.49307 10.7018 3.49555 10.6354C3.49803 10.5689 3.48097 10.5032 3.44649 10.4464C3.18604 10.016 2.98907 9.54693 2.86477 9.04719C2.84886 8.98354 2.81488 8.92584 2.76693 8.88107C2.71897 8.83629 2.65909 8.80635 2.59449 8.79484L0.680001 8.45484V7.15793L2.59316 6.83984C2.65857 6.829 2.71937 6.79927 2.7681 6.75432C2.81682 6.70937 2.85135 6.65115 2.86742 6.58684C2.99279 6.08537 3.18967 5.61637 3.44914 5.18699C3.48336 5.13062 3.50045 5.06552 3.49832 4.99961C3.4962 4.9337 3.47496 4.86983 3.43719 4.81578L2.32023 3.21938L3.23731 2.30297L4.82242 3.43586C4.87635 3.47431 4.94033 3.49618 5.00651 3.49877C5.07269 3.50137 5.13819 3.48458 5.19496 3.45047C5.62189 3.19406 6.09209 2.99951 6.59016 2.87738C6.6549 2.86144 6.71353 2.82682 6.75875 2.77782C6.80397 2.72882 6.83379 2.66761 6.84449 2.6018L7.15859 0.68ZM7.81934 5.1C6.32115 5.1 5.09934 6.32181 5.09934 7.82C5.09934 9.31819 6.32115 10.54 7.81934 10.54C9.31752 10.54 10.5393 9.31819 10.5393 7.82C10.5393 6.32181 9.31752 5.1 7.81934 5.1ZM7.81934 5.78C8.95002 5.78 9.85934 6.68931 9.85934 7.82C9.85934 8.95069 8.95002 9.86 7.81934 9.86C6.68865 9.86 5.77934 8.95069 5.77934 7.82C5.77934 6.68931 6.68865 5.78 7.81934 5.78Z" fill="#9DA5B4"/>
</svg>
