<svg width="23" height="20" viewBox="0 0 23 20" fill="none" xmlns="http://www.w3.org/2000/svg">
<path d="M18.752 18.75C20.1855 17.3161 21.1618 15.4892 21.5573 13.5003C21.9528 11.5114 21.7498 9.44983 20.974 7.57633C20.1982 5.70283 18.8844 4.10152 17.1987 2.9749C15.5131 1.84828 13.5314 1.24695 11.5041 1.24695C9.47677 1.24695 7.49501 1.84828 5.80938 2.9749C4.12375 4.10152 2.80997 5.70283 2.03416 7.57633C1.25835 9.44983 1.05536 11.5114 1.45086 13.5003C1.84637 15.4892 2.8226 17.3161 4.25611 18.75M14 9.29289L17.2928 6M12.9233 11.5C12.9233 12.284 12.2879 12.9196 11.5041 12.9196C10.7202 12.9196 10.0848 12.284 10.0848 11.5C10.0848 10.7159 10.7202 10.0803 11.5041 10.0803C12.2879 10.0803 12.9233 10.7159 12.9233 11.5Z" stroke="#DFDFDF" stroke-linecap="round"/>
</svg>
