<svg width="104" height="36" viewBox="0 0 104 36" fill="none" xmlns="http://www.w3.org/2000/svg">
<rect x="0.5" y="2.5" width="31" height="31" rx="5.5" stroke="#DB4356"/>
<ellipse cx="11.2532" cy="9.48854" rx="2.78261" ry="2.78261" fill="#DB4356"/>
<ellipse cx="11.2532" cy="17.8363" rx="2.78261" ry="2.78261" fill="#DB4356"/>
<ellipse cx="11.2532" cy="26.1841" rx="2.78261" ry="2.78261" fill="#DB4356"/>
<ellipse cx="20.2967" cy="26.1841" rx="2.78261" ry="2.78261" fill="#DB4356"/>
<path d="M49.512 12.848V26H47.328V24.056C46.912 24.728 46.328 25.256 45.576 25.64C44.84 26.008 44.024 26.192 43.128 26.192C42.104 26.192 41.184 25.984 40.368 25.568C39.552 25.136 38.904 24.496 38.424 23.648C37.96 22.8 37.728 21.768 37.728 20.552V12.848H39.888V20.264C39.888 21.56 40.216 22.56 40.872 23.264C41.528 23.952 42.424 24.296 43.56 24.296C44.728 24.296 45.648 23.936 46.32 23.216C46.992 22.496 47.328 21.448 47.328 20.072V12.848H49.512ZM69.0156 12.608C70.0396 12.608 70.9516 12.824 71.7516 13.256C72.5516 13.672 73.1836 14.304 73.6476 15.152C74.1116 16 74.3436 17.032 74.3436 18.248V26H72.1836V18.56C72.1836 17.248 71.8556 16.248 71.1996 15.56C70.5596 14.856 69.6876 14.504 68.5836 14.504C67.4476 14.504 66.5436 14.872 65.8716 15.608C65.1996 16.328 64.8636 17.376 64.8636 18.752V26H62.7036V18.56C62.7036 17.248 62.3756 16.248 61.7196 15.56C61.0796 14.856 60.2076 14.504 59.1036 14.504C57.9676 14.504 57.0636 14.872 56.3916 15.608C55.7196 16.328 55.3836 17.376 55.3836 18.752V26H53.1996V12.848H55.3836V14.744C55.8156 14.056 56.3916 13.528 57.1116 13.16C57.8476 12.792 58.6556 12.608 59.5356 12.608C60.6396 12.608 61.6156 12.856 62.4636 13.352C63.3116 13.848 63.9436 14.576 64.3596 15.536C64.7276 14.608 65.3356 13.888 66.1836 13.376C67.0316 12.864 67.9756 12.608 69.0156 12.608ZM83.6621 26.216C82.4301 26.216 81.3101 25.936 80.3021 25.376C79.3101 24.816 78.5261 24.024 77.9501 23C77.3901 21.96 77.1101 20.76 77.1101 19.4C77.1101 18.056 77.3981 16.872 77.9741 15.848C78.5661 14.808 79.3661 14.016 80.3741 13.472C81.3821 12.912 82.5101 12.632 83.7581 12.632C85.0061 12.632 86.1341 12.912 87.1421 13.472C88.1501 14.016 88.9421 14.8 89.5181 15.824C90.1101 16.848 90.4061 18.04 90.4061 19.4C90.4061 20.76 90.1021 21.96 89.4941 23C88.9021 24.024 88.0941 24.816 87.0701 25.376C86.0461 25.936 84.9101 26.216 83.6621 26.216ZM83.6621 24.296C84.4461 24.296 85.1821 24.112 85.8701 23.744C86.5581 23.376 87.1101 22.824 87.5261 22.088C87.9581 21.352 88.1741 20.456 88.1741 19.4C88.1741 18.344 87.9661 17.448 87.5501 16.712C87.1341 15.976 86.5901 15.432 85.9181 15.08C85.2461 14.712 84.5181 14.528 83.7341 14.528C82.9341 14.528 82.1981 14.712 81.5261 15.08C80.8701 15.432 80.3421 15.976 79.9421 16.712C79.5421 17.448 79.3421 18.344 79.3421 19.4C79.3421 20.472 79.5341 21.376 79.9181 22.112C80.3181 22.848 80.8461 23.4 81.5021 23.768C82.1581 24.12 82.8781 24.296 83.6621 24.296ZM97.9337 26.216C96.9257 26.216 96.0217 26.048 95.2217 25.712C94.4217 25.36 93.7897 24.88 93.3257 24.272C92.8617 23.648 92.6057 22.936 92.5577 22.136H94.8137C94.8777 22.792 95.1817 23.328 95.7257 23.744C96.2857 24.16 97.0137 24.368 97.9097 24.368C98.7417 24.368 99.3977 24.184 99.8777 23.816C100.358 23.448 100.598 22.984 100.598 22.424C100.598 21.848 100.342 21.424 99.8297 21.152C99.3177 20.864 98.5257 20.584 97.4537 20.312C96.4777 20.056 95.6777 19.8 95.0537 19.544C94.4457 19.272 93.9177 18.88 93.4697 18.368C93.0377 17.84 92.8217 17.152 92.8217 16.304C92.8217 15.632 93.0217 15.016 93.4217 14.456C93.8217 13.896 94.3897 13.456 95.1257 13.136C95.8617 12.8 96.7017 12.632 97.6457 12.632C99.1017 12.632 100.278 13 101.174 13.736C102.07 14.472 102.55 15.48 102.614 16.76H100.43C100.382 16.072 100.102 15.52 99.5897 15.104C99.0937 14.688 98.4217 14.48 97.5737 14.48C96.7897 14.48 96.1657 14.648 95.7017 14.984C95.2377 15.32 95.0057 15.76 95.0057 16.304C95.0057 16.736 95.1417 17.096 95.4137 17.384C95.7017 17.656 96.0537 17.88 96.4697 18.056C96.9017 18.216 97.4937 18.4 98.2457 18.608C99.1897 18.864 99.9577 19.12 100.55 19.376C101.142 19.616 101.646 19.984 102.062 20.48C102.494 20.976 102.718 21.624 102.734 22.424C102.734 23.144 102.534 23.792 102.134 24.368C101.734 24.944 101.166 25.4 100.43 25.736C99.7097 26.056 98.8777 26.216 97.9337 26.216Z" fill="#DB4356"/>
</svg>
